<?xml version="1.0" encoding="UTF-8" standalone="no"?>
<!DOCTYPE svg PUBLIC "-//W3C//DTD SVG 1.1//EN"
 "http://www.w3.org/Graphics/SVG/1.1/DTD/svg11.dtd">
<!-- Generated by graphviz version 2.47.0 (20210316.0004)
 -->
<!-- Title: dependencies Pages: 1 -->
<svg width="1222pt" height="284pt"
 viewBox="0.00 0.00 1222.00 284.00" xmlns="http://www.w3.org/2000/svg" xmlns:xlink="http://www.w3.org/1999/xlink">
<g id="graph0" class="graph" transform="scale(1 1) rotate(0) translate(4 280)">
<title>dependencies</title>
<polygon fill="white" stroke="transparent" points="-4,4 -4,-280 1218,-280 1218,4 -4,4"/>
<text text-anchor="start" x="586.01" y="-42.4" font-family="Times-12" font-weight="bold" font-size="14.00">Legend</text>
<polygon fill="#ffffb3" stroke="transparent" points="373,-10 373,-30 393,-30 393,-10 373,-10"/>
<text text-anchor="start" x="396.63" y="-15.4" font-family="Times-12" font-size="14.00"> &#160;Declarations</text>
<polygon fill="#8dd3c7" stroke="transparent" points="486,-10 486,-30 506,-30 506,-10 486,-10"/>
<text text-anchor="start" x="509.73" y="-15.4" font-family="Times-12" font-size="14.00"> &#160;Module</text>
<polygon fill="#80b1d3" stroke="transparent" points="572,-10 572,-30 592,-30 592,-10 572,-10"/>
<text text-anchor="start" x="595.78" y="-15.4" font-family="Times-12" font-size="14.00"> &#160;Bootstrap</text>
<polygon fill="#fdb462" stroke="transparent" points="669,-10 669,-30 689,-30 689,-10 669,-10"/>
<text text-anchor="start" x="692.67" y="-15.4" font-family="Times-12" font-size="14.00"> &#160;Providers</text>
<polygon fill="#fb8072" stroke="transparent" points="765,-10 765,-30 785,-30 785,-10 765,-10"/>
<text text-anchor="start" x="788.73" y="-15.4" font-family="Times-12" font-size="14.00"> &#160;Exports</text>
<g id="clust1" class="cluster">
<title>cluster_AppModule</title>
<polygon fill="none" stroke="black" stroke-dasharray="1,5" points="8,-70 8,-268 1206,-268 1206,-70 8,-70"/>
</g>
<g id="clust11" class="cluster">
<title>cluster_AppModule_bootstrap</title>
<polygon fill="none" stroke="black" points="583,-208 583,-260 707,-260 707,-208 583,-208"/>
</g>
<g id="clust9" class="cluster">
<title>cluster_AppModule_imports</title>
<polygon fill="none" stroke="black" points="1054,-78 1054,-130 1198,-130 1198,-78 1054,-78"/>
</g>
<g id="clust2" class="cluster">
<title>cluster_AppModule_declarations</title>
<polygon fill="none" stroke="black" points="192,-78 192,-130 1046,-130 1046,-78 192,-78"/>
</g>
<g id="clust12" class="cluster">
<title>cluster_AppModule_providers</title>
<polygon fill="none" stroke="black" points="16,-78 16,-130 184,-130 184,-78 16,-78"/>
</g>
<!-- AppComponent -->
<g id="node1" class="node">
<title>AppComponent</title>
<polygon fill="#ffffb3" stroke="black" points="1037.94,-122 932.06,-122 932.06,-86 1037.94,-86 1037.94,-122"/>
<text text-anchor="middle" x="985" y="-99.8" font-family="Times,serif" font-size="14.00">AppComponent</text>
</g>
<!-- AppModule -->
<g id="node7" class="node">
<title>AppModule</title>
<polygon fill="#8dd3c7" stroke="black" points="686.66,-187 683.66,-191 662.66,-191 659.66,-187 603.34,-187 603.34,-151 686.66,-151 686.66,-187"/>
<text text-anchor="middle" x="645" y="-164.8" font-family="Times,serif" font-size="14.00">AppModule</text>
</g>
<!-- AppComponent&#45;&gt;AppModule -->
<g id="edge1" class="edge">
<title>AppComponent&#45;&gt;AppModule</title>
<path fill="none" stroke="black" d="M985,-122.11C985,-141.34 985,-169 985,-169 985,-169 696.69,-169 696.69,-169"/>
<polygon fill="black" stroke="black" points="696.69,-165.5 686.69,-169 696.69,-172.5 696.69,-165.5"/>
</g>
<!-- DetailsComponent -->
<g id="node2" class="node">
<title>DetailsComponent</title>
<polygon fill="#ffffb3" stroke="black" points="914.48,-122 793.52,-122 793.52,-86 914.48,-86 914.48,-122"/>
<text text-anchor="middle" x="854" y="-99.8" font-family="Times,serif" font-size="14.00">DetailsComponent</text>
</g>
<!-- DetailsComponent&#45;&gt;AppModule -->
<g id="edge2" class="edge">
<title>DetailsComponent&#45;&gt;AppModule</title>
<path fill="none" stroke="black" d="M854,-122.03C854,-138.4 854,-160 854,-160 854,-160 696.79,-160 696.79,-160"/>
<polygon fill="black" stroke="black" points="696.79,-156.5 686.79,-160 696.79,-163.5 696.79,-156.5"/>
</g>
<!-- HomeComponent -->
<g id="node3" class="node">
<title>HomeComponent</title>
<polygon fill="#ffffb3" stroke="black" points="775.55,-122 660.45,-122 660.45,-86 775.55,-86 775.55,-122"/>
<text text-anchor="middle" x="718" y="-99.8" font-family="Times,serif" font-size="14.00">HomeComponent</text>
</g>
<!-- HomeComponent&#45;&gt;AppModule -->
<g id="edge3" class="edge">
<title>HomeComponent&#45;&gt;AppModule</title>
<path fill="none" stroke="black" d="M673.53,-122.11C673.53,-122.11 673.53,-140.99 673.53,-140.99"/>
<polygon fill="black" stroke="black" points="670.03,-140.99 673.53,-150.99 677.03,-140.99 670.03,-140.99"/>
</g>
<!-- LineChartComponent -->
<g id="node4" class="node">
<title>LineChartComponent</title>
<polygon fill="#ffffb3" stroke="black" points="642.09,-122 503.91,-122 503.91,-86 642.09,-86 642.09,-122"/>
<text text-anchor="middle" x="573" y="-99.8" font-family="Times,serif" font-size="14.00">LineChartComponent</text>
</g>
<!-- LineChartComponent&#45;&gt;AppModule -->
<g id="edge4" class="edge">
<title>LineChartComponent&#45;&gt;AppModule</title>
<path fill="none" stroke="black" d="M622.61,-122.11C622.61,-122.11 622.61,-140.99 622.61,-140.99"/>
<polygon fill="black" stroke="black" points="619.11,-140.99 622.61,-150.99 626.11,-140.99 619.11,-140.99"/>
</g>
<!-- NotFoundComponent -->
<g id="node5" class="node">
<title>NotFoundComponent</title>
<polygon fill="#ffffb3" stroke="black" points="486.11,-122 347.89,-122 347.89,-86 486.11,-86 486.11,-122"/>
<text text-anchor="middle" x="417" y="-99.8" font-family="Times,serif" font-size="14.00">NotFoundComponent</text>
</g>
<!-- NotFoundComponent&#45;&gt;AppModule -->
<g id="edge5" class="edge">
<title>NotFoundComponent&#45;&gt;AppModule</title>
<path fill="none" stroke="black" d="M417,-122.03C417,-138.4 417,-160 417,-160 417,-160 593.18,-160 593.18,-160"/>
<polygon fill="black" stroke="black" points="593.18,-163.5 603.18,-160 593.18,-156.5 593.18,-163.5"/>
</g>
<!-- PieChartComponent -->
<g id="node6" class="node">
<title>PieChartComponent</title>
<polygon fill="#ffffb3" stroke="black" points="330.32,-122 199.68,-122 199.68,-86 330.32,-86 330.32,-122"/>
<text text-anchor="middle" x="265" y="-99.8" font-family="Times,serif" font-size="14.00">PieChartComponent</text>
</g>
<!-- PieChartComponent&#45;&gt;AppModule -->
<g id="edge6" class="edge">
<title>PieChartComponent&#45;&gt;AppModule</title>
<path fill="none" stroke="black" d="M265,-122.11C265,-141.34 265,-169 265,-169 265,-169 593.25,-169 593.25,-169"/>
<polygon fill="black" stroke="black" points="593.25,-172.5 603.25,-169 593.25,-165.5 593.25,-172.5"/>
</g>
<!-- AppComponent  -->
<g id="node9" class="node">
<title>AppComponent </title>
<polygon fill="#80b1d3" stroke="black" points="699.44,-252 590.56,-252 590.56,-216 699.44,-216 699.44,-252"/>
<text text-anchor="middle" x="645" y="-229.8" font-family="Times,serif" font-size="14.00">AppComponent </text>
</g>
<!-- AppModule&#45;&gt;AppComponent  -->
<g id="edge8" class="edge">
<title>AppModule&#45;&gt;AppComponent </title>
<path fill="none" stroke="black" stroke-dasharray="1,5" d="M645,-187.11C645,-187.11 645,-205.99 645,-205.99"/>
<polygon fill="black" stroke="black" points="641.5,-205.99 645,-215.99 648.5,-205.99 641.5,-205.99"/>
</g>
<!-- AppRoutingModule -->
<g id="node8" class="node">
<title>AppRoutingModule</title>
<polygon fill="#8dd3c7" stroke="black" points="1190.27,-122 1187.27,-126 1166.27,-126 1163.27,-122 1061.73,-122 1061.73,-86 1190.27,-86 1190.27,-122"/>
<text text-anchor="middle" x="1126" y="-99.8" font-family="Times,serif" font-size="14.00">AppRoutingModule</text>
</g>
<!-- AppRoutingModule&#45;&gt;AppModule -->
<g id="edge7" class="edge">
<title>AppRoutingModule&#45;&gt;AppModule</title>
<path fill="none" stroke="black" d="M1126,-122.29C1126,-144.21 1126,-178 1126,-178 1126,-178 696.84,-178 696.84,-178"/>
<polygon fill="black" stroke="black" points="696.84,-174.5 686.84,-178 696.84,-181.5 696.84,-174.5"/>
</g>
<!-- DelayInterceptor -->
<g id="node10" class="node">
<title>DelayInterceptor</title>
<ellipse fill="#fdb462" stroke="black" cx="100" cy="-104" rx="76.4" ry="18"/>
<text text-anchor="middle" x="100" y="-99.8" font-family="Times,serif" font-size="14.00">DelayInterceptor</text>
</g>
<!-- DelayInterceptor&#45;&gt;AppModule -->
<g id="edge9" class="edge">
<title>DelayInterceptor&#45;&gt;AppModule</title>
<path fill="none" stroke="black" d="M100,-122.29C100,-144.21 100,-178 100,-178 100,-178 593.14,-178 593.14,-178"/>
<polygon fill="black" stroke="black" points="593.14,-181.5 603.14,-178 593.14,-174.5 593.14,-181.5"/>
</g>
</g>
</svg>
