<?xml version="1.0" encoding="UTF-8" standalone="no"?>
<!DOCTYPE svg PUBLIC "-//W3C//DTD SVG 1.1//EN"
 "http://www.w3.org/Graphics/SVG/1.1/DTD/svg11.dtd">
<!-- Generated by graphviz version 2.47.0 (20210316.0004)
 -->
<!-- Title: dependencies Pages: 1 -->
<svg width="1222pt" height="284pt"
 viewBox="0.00 0.00 1222.00 284.00" xmlns="http://www.w3.org/2000/svg" xmlns:xlink="http://www.w3.org/1999/xlink">
<g id="graph0" class="graph" transform="scale(1 1) rotate(0) translate(4 280)">
<title>dependencies</title>
<polygon fill="white" stroke="transparent" points="-4,4 -4,-280 1218,-280 1218,4 -4,4"/>
<text text-anchor="start" x="586.01" y="-42.4" font-family="Times-12" font-weight="bold" font-size="14.00">Legend</text>
<polygon fill="#ffffb3" stroke="transparent" points="373,-10 373,-30 393,-30 393,-10 373,-10"/>
<text text-anchor="start" x="396.63" y="-15.4" font-family="Times-12" font-size="14.00"> &#160;Declarations</text>
<polygon fill="#8dd3c7" stroke="transparent" points="486,-10 486,-30 506,-30 506,-10 486,-10"/>
<text text-anchor="start" x="509.73" y="-15.4" font-family="Times-12" font-size="14.00"> &#160;Module</text>
<polygon fill="#80b1d3" stroke="transparent" points="572,-10 572,-30 592,-30 592,-10 572,-10"/>
<text text-anchor="start" x="595.78" y="-15.4" font-family="Times-12" font-size="14.00"> &#160;Bootstrap</text>
<polygon fill="#fdb462" stroke="transparent" points="669,-10 669,-30 689,-30 689,-10 669,-10"/>
<text text-anchor="start" x="692.67" y="-15.4" font-family="Times-12" font-size="14.00"> &#160;Providers</text>
<polygon fill="#fb8072" stroke="transparent" points="765,-10 765,-30 785,-30 785,-10 765,-10"/>
<text text-anchor="start" x="788.73" y="-15.4" font-family="Times-12" font-size="14.00"> &#160;Exports</text>
<g id="clust1" class="cluster">
<title>cluster_AppModule</title>
<polygon fill="none" stroke="black" stroke-dasharray="1,5" points="8,-70 8,-268 1206,-268 1206,-70 8,-70"/>
</g>
<g id="clust2" class="cluster">
<title>cluster_AppModule_declarations</title>
<polygon fill="none" stroke="black" points="344,-78 344,-130 1198,-130 1198,-78 344,-78"/>
</g>
<g id="clust9" class="cluster">
<title>cluster_AppModule_imports</title>
<polygon fill="none" stroke="black" points="192,-78 192,-130 336,-130 336,-78 192,-78"/>
</g>
<g id="clust11" class="cluster">
<title>cluster_AppModule_bootstrap</title>
<polygon fill="none" stroke="black" points="585,-208 585,-260 709,-260 709,-208 585,-208"/>
</g>
<g id="clust12" class="cluster">
<title>cluster_AppModule_providers</title>
<polygon fill="none" stroke="black" points="16,-78 16,-130 184,-130 184,-78 16,-78"/>
</g>
<!-- AppComponent -->
<g id="node1" class="node">
<title>AppComponent</title>
<polygon fill="#ffffb3" stroke="black" points="1189.94,-122 1084.06,-122 1084.06,-86 1189.94,-86 1189.94,-122"/>
<text text-anchor="middle" x="1137" y="-99.8" font-family="Times,serif" font-size="14.00">AppComponent</text>
</g>
<!-- AppModule -->
<g id="node7" class="node">
<title>AppModule</title>
<polygon fill="#8dd3c7" stroke="black" points="688.66,-187 685.66,-191 664.66,-191 661.66,-187 605.34,-187 605.34,-151 688.66,-151 688.66,-187"/>
<text text-anchor="middle" x="647" y="-164.8" font-family="Times,serif" font-size="14.00">AppModule</text>
</g>
<!-- AppComponent&#45;&gt;AppModule -->
<g id="edge1" class="edge">
<title>AppComponent&#45;&gt;AppModule</title>
<path fill="none" stroke="black" d="M1137,-122.29C1137,-144.21 1137,-178 1137,-178 1137,-178 698.78,-178 698.78,-178"/>
<polygon fill="black" stroke="black" points="698.78,-174.5 688.78,-178 698.78,-181.5 698.78,-174.5"/>
</g>
<!-- DetailsComponent -->
<g id="node2" class="node">
<title>DetailsComponent</title>
<polygon fill="#ffffb3" stroke="black" points="1066.48,-122 945.52,-122 945.52,-86 1066.48,-86 1066.48,-122"/>
<text text-anchor="middle" x="1006" y="-99.8" font-family="Times,serif" font-size="14.00">DetailsComponent</text>
</g>
<!-- DetailsComponent&#45;&gt;AppModule -->
<g id="edge2" class="edge">
<title>DetailsComponent&#45;&gt;AppModule</title>
<path fill="none" stroke="black" d="M1006,-122.11C1006,-141.34 1006,-169 1006,-169 1006,-169 698.88,-169 698.88,-169"/>
<polygon fill="black" stroke="black" points="698.88,-165.5 688.88,-169 698.88,-172.5 698.88,-165.5"/>
</g>
<!-- HomeComponent -->
<g id="node3" class="node">
<title>HomeComponent</title>
<polygon fill="#ffffb3" stroke="black" points="927.55,-122 812.45,-122 812.45,-86 927.55,-86 927.55,-122"/>
<text text-anchor="middle" x="870" y="-99.8" font-family="Times,serif" font-size="14.00">HomeComponent</text>
</g>
<!-- HomeComponent&#45;&gt;AppModule -->
<g id="edge3" class="edge">
<title>HomeComponent&#45;&gt;AppModule</title>
<path fill="none" stroke="black" d="M870,-122.03C870,-138.4 870,-160 870,-160 870,-160 698.68,-160 698.68,-160"/>
<polygon fill="black" stroke="black" points="698.68,-156.5 688.68,-160 698.68,-163.5 698.68,-156.5"/>
</g>
<!-- LineChartComponent -->
<g id="node4" class="node">
<title>LineChartComponent</title>
<polygon fill="#ffffb3" stroke="black" points="794.09,-122 655.91,-122 655.91,-86 794.09,-86 794.09,-122"/>
<text text-anchor="middle" x="725" y="-99.8" font-family="Times,serif" font-size="14.00">LineChartComponent</text>
</g>
<!-- LineChartComponent&#45;&gt;AppModule -->
<g id="edge4" class="edge">
<title>LineChartComponent&#45;&gt;AppModule</title>
<path fill="none" stroke="black" d="M672.39,-122.11C672.39,-122.11 672.39,-140.99 672.39,-140.99"/>
<polygon fill="black" stroke="black" points="668.89,-140.99 672.39,-150.99 675.89,-140.99 668.89,-140.99"/>
</g>
<!-- NotFoundComponent -->
<g id="node5" class="node">
<title>NotFoundComponent</title>
<polygon fill="#ffffb3" stroke="black" points="638.11,-122 499.89,-122 499.89,-86 638.11,-86 638.11,-122"/>
<text text-anchor="middle" x="569" y="-99.8" font-family="Times,serif" font-size="14.00">NotFoundComponent</text>
</g>
<!-- NotFoundComponent&#45;&gt;AppModule -->
<g id="edge5" class="edge">
<title>NotFoundComponent&#45;&gt;AppModule</title>
<path fill="none" stroke="black" d="M621.61,-122.11C621.61,-122.11 621.61,-140.99 621.61,-140.99"/>
<polygon fill="black" stroke="black" points="618.11,-140.99 621.61,-150.99 625.11,-140.99 618.11,-140.99"/>
</g>
<!-- PieChartComponent -->
<g id="node6" class="node">
<title>PieChartComponent</title>
<polygon fill="#ffffb3" stroke="black" points="482.32,-122 351.68,-122 351.68,-86 482.32,-86 482.32,-122"/>
<text text-anchor="middle" x="417" y="-99.8" font-family="Times,serif" font-size="14.00">PieChartComponent</text>
</g>
<!-- PieChartComponent&#45;&gt;AppModule -->
<g id="edge6" class="edge">
<title>PieChartComponent&#45;&gt;AppModule</title>
<path fill="none" stroke="black" d="M417,-122.03C417,-138.4 417,-160 417,-160 417,-160 595.08,-160 595.08,-160"/>
<polygon fill="black" stroke="black" points="595.08,-163.5 605.08,-160 595.08,-156.5 595.08,-163.5"/>
</g>
<!-- AppComponent  -->
<g id="node9" class="node">
<title>AppComponent </title>
<polygon fill="#80b1d3" stroke="black" points="701.44,-252 592.56,-252 592.56,-216 701.44,-216 701.44,-252"/>
<text text-anchor="middle" x="647" y="-229.8" font-family="Times,serif" font-size="14.00">AppComponent </text>
</g>
<!-- AppModule&#45;&gt;AppComponent  -->
<g id="edge8" class="edge">
<title>AppModule&#45;&gt;AppComponent </title>
<path fill="none" stroke="black" stroke-dasharray="1,5" d="M647,-187.11C647,-187.11 647,-205.99 647,-205.99"/>
<polygon fill="black" stroke="black" points="643.5,-205.99 647,-215.99 650.5,-205.99 643.5,-205.99"/>
</g>
<!-- AppRoutingModule -->
<g id="node8" class="node">
<title>AppRoutingModule</title>
<polygon fill="#8dd3c7" stroke="black" points="328.27,-122 325.27,-126 304.27,-126 301.27,-122 199.73,-122 199.73,-86 328.27,-86 328.27,-122"/>
<text text-anchor="middle" x="264" y="-99.8" font-family="Times,serif" font-size="14.00">AppRoutingModule</text>
</g>
<!-- AppRoutingModule&#45;&gt;AppModule -->
<g id="edge7" class="edge">
<title>AppRoutingModule&#45;&gt;AppModule</title>
<path fill="none" stroke="black" d="M264,-122.11C264,-141.34 264,-169 264,-169 264,-169 595.28,-169 595.28,-169"/>
<polygon fill="black" stroke="black" points="595.28,-172.5 605.28,-169 595.28,-165.5 595.28,-172.5"/>
</g>
<!-- DelayInterceptor -->
<g id="node10" class="node">
<title>DelayInterceptor</title>
<ellipse fill="#fdb462" stroke="black" cx="100" cy="-104" rx="76.4" ry="18"/>
<text text-anchor="middle" x="100" y="-99.8" font-family="Times,serif" font-size="14.00">DelayInterceptor</text>
</g>
<!-- DelayInterceptor&#45;&gt;AppModule -->
<g id="edge9" class="edge">
<title>DelayInterceptor&#45;&gt;AppModule</title>
<path fill="none" stroke="black" d="M100,-122.29C100,-144.21 100,-178 100,-178 100,-178 594.99,-178 594.99,-178"/>
<polygon fill="black" stroke="black" points="594.99,-181.5 604.99,-178 594.99,-174.5 594.99,-181.5"/>
</g>
</g>
</svg>
